HIERARCHY
ROOT Hips
{
    OFFSET   0.000000   0.000000   0.000000
    CHANNELS 6 Xposition Yposition Zposition Zrotation Xrotation Yrotation
    JOINT Chest
    {
        OFFSET   0.000000   8.007240   0.000000
        CHANNELS 3 Zrotation Xrotation Yrotation
        JOINT Chest2
        {
            OFFSET   0.000000  22.077100   0.000000
            CHANNELS 3 Zrotation Xrotation Yrotation
            JOINT Neck
            {
                OFFSET   0.000000  23.254800   0.000000
                CHANNELS 3 Zrotation Xrotation Yrotation
                JOINT Head
                {
                    OFFSET   0.000000  14.370000   1.956600
                    CHANNELS 3 Zrotation Xrotation Yrotation
                    End Site
                    {
                        OFFSET   0.000000  19.566000   0.000000
                    }
                }
            }
            JOINT LeftCollar
            {
                OFFSET   3.911900  19.017000  -0.467064
                CHANNELS 3 Zrotation Xrotation Yrotation
                JOINT LeftShoulder
                {
                    OFFSET  10.383700   0.000000   0.000000
                    CHANNELS 3 Zrotation Xrotation Yrotation
                    JOINT LeftElbow
                    {
                        OFFSET  26.662100   0.001476   0.000517
                        CHANNELS 3 Zrotation Xrotation Yrotation
                        JOINT LeftWrist
                        {
                            OFFSET  28.869000  -0.000025  -0.000106
                            CHANNELS 3 Zrotation Xrotation Yrotation
                            JOINT LeftFinger0
                            {
                                OFFSET   2.044660  -2.323460   3.252850
                                CHANNELS 3 Zrotation Xrotation Yrotation
                                JOINT LeftFinger01
                                {
                                    OFFSET   3.088130   0.000000   0.000000
                                    CHANNELS 3 Zrotation Xrotation Yrotation
                                    JOINT LeftFinger02
                                    {
                                        OFFSET   2.639460   0.000000   0.000000
                                        CHANNELS 3 Zrotation Xrotation Yrotation
                                        End Site
                                        {
                                            OFFSET   2.582190   0.000000   0.000000
                                        }
                                    }
                                }
                            }
                            JOINT LeftFinger1
                            {
                                OFFSET   8.364480   0.000000   3.252850
                                CHANNELS 3 Zrotation Xrotation Yrotation
                                JOINT LeftFinger11
                                {
                                    OFFSET   4.646930   0.000000   0.000000
                                    CHANNELS 3 Zrotation Xrotation Yrotation
                                    JOINT LeftFinger12
                                    {
                                        OFFSET   2.323460   0.000000   0.000000
                                        CHANNELS 3 Zrotation Xrotation Yrotation
                                        End Site
                                        {
                                            OFFSET   2.273050   0.000000   0.000000
                                        }
                                    }
                                }
                            }
                            JOINT LeftFinger2
                            {
                                OFFSET   8.364490   0.000015   1.078090
                                CHANNELS 3 Zrotation Xrotation Yrotation
                                JOINT LeftFinger21
                                {
                                    OFFSET   5.111620   0.000000   0.000000
                                    CHANNELS 3 Zrotation Xrotation Yrotation
                                    JOINT LeftFinger22
                                    {
                                        OFFSET   2.788160   0.000016   0.000000
                                        CHANNELS 3 Zrotation Xrotation Yrotation
                                        End Site
                                        {
                                            OFFSET   2.727660   0.000000   0.000000
                                        }
                                    }
                                }
                            }
                            JOINT LeftFinger3
                            {
                                OFFSET   7.899780   0.000017  -1.078090
                                CHANNELS 3 Zrotation Xrotation Yrotation
                                JOINT LeftFinger31
                                {
                                    OFFSET   4.646930   0.000000   0.000000
                                    CHANNELS 3 Zrotation Xrotation Yrotation
                                    JOINT LeftFinger32
                                    {
                                        OFFSET   2.323470   0.000000   0.000000
                                        CHANNELS 3 Zrotation Xrotation Yrotation
                                        End Site
                                        {
                                            OFFSET   2.273050   0.000000   0.000000
                                        }
                                    }
                                }
                            }
                            JOINT LeftFinger4
                            {
                                OFFSET   7.435090   0.000000  -3.252850
                                CHANNELS 3 Zrotation Xrotation Yrotation
                                JOINT LeftFinger41
                                {
                                    OFFSET   3.717550   0.000000   0.000000
                                    CHANNELS 3 Zrotation Xrotation Yrotation
                                    JOINT LeftFinger42
                                    {
                                        OFFSET   1.858770   0.000000   0.000000
                                        CHANNELS 3 Zrotation Xrotation Yrotation
                                        End Site
                                        {
                                            OFFSET   1.818440   0.000000   0.000000
                                        }
                                    }
                                }
                            }
                        }
                    }
                }
            }
            JOINT RightCollar
            {
                OFFSET  -3.911900  19.017000  -0.467063
                CHANNELS 3 Zrotation Xrotation Yrotation
                JOINT RightShoulder
                {
                    OFFSET -10.383700   0.000019   0.000000
                    CHANNELS 3 Zrotation Xrotation Yrotation
                    JOINT RightElbow
                    {
                        OFFSET -26.662100   0.001175   0.000102
                        CHANNELS 3 Zrotation Xrotation Yrotation
                        JOINT RightWrist
                        {
                            OFFSET -28.869000   0.000016  -0.000079
                            CHANNELS 3 Zrotation Xrotation Yrotation
                            JOINT RightFinger0
                            {
                                OFFSET  -2.044660  -2.323490   3.252850
                                CHANNELS 3 Zrotation Xrotation Yrotation
                                JOINT RightFinger01
                                {
                                    OFFSET  -3.088140   0.000000   0.000000
                                    CHANNELS 3 Zrotation Xrotation Yrotation
                                    JOINT RightFinger02
                                    {
                                        OFFSET  -2.639460   0.000000   0.000000
                                        CHANNELS 3 Zrotation Xrotation Yrotation
                                        End Site
                                        {
                                            OFFSET  -2.582190   0.000000   0.000000
                                        }
                                    }
                                }
                            }
                            JOINT RightFinger1
                            {
                                OFFSET  -8.364480   0.000000   3.252850
                                CHANNELS 3 Zrotation Xrotation Yrotation
                                JOINT RightFinger11
                                {
                                    OFFSET  -4.646930   0.000000   0.000000
                                    CHANNELS 3 Zrotation Xrotation Yrotation
                                    JOINT RightFinger12
                                    {
                                        OFFSET  -2.323470   0.000000   0.000000
                                        CHANNELS 3 Zrotation Xrotation Yrotation
                                        End Site
                                        {
                                            OFFSET  -2.273050   0.000000   0.000000
                                        }
                                    }
                                }
                            }
                            JOINT RightFinger2
                            {
                                OFFSET  -8.364480   0.000000   1.078090
                                CHANNELS 3 Zrotation Xrotation Yrotation
                                JOINT RightFinger21
                                {
                                    OFFSET  -5.111620   0.000000   0.000000
                                    CHANNELS 3 Zrotation Xrotation Yrotation
                                    JOINT RightFinger22
                                    {
                                        OFFSET  -2.788160   0.000000   0.000000
                                        CHANNELS 3 Zrotation Xrotation Yrotation
                                        End Site
                                        {
                                            OFFSET  -2.727660   0.000000   0.000000
                                        }
                                    }
                                }
                            }
                            JOINT RightFinger3
                            {
                                OFFSET  -7.899780   0.000000  -1.078090
                                CHANNELS 3 Zrotation Xrotation Yrotation
                                JOINT RightFinger31
                                {
                                    OFFSET  -4.646930   0.000000   0.000000
                                    CHANNELS 3 Zrotation Xrotation Yrotation
                                    JOINT RightFinger32
                                    {
                                        OFFSET  -2.323470   0.000000   0.000000
                                        CHANNELS 3 Zrotation Xrotation Yrotation
                                        End Site
                                        {
                                            OFFSET  -2.273050   0.000000   0.000000
                                        }
                                    }
                                }
                            }
                            JOINT RightFinger4
                            {
                                OFFSET  -7.435090   0.000000  -3.252850
                                CHANNELS 3 Zrotation Xrotation Yrotation
                                JOINT RightFinger41
                                {
                                    OFFSET  -3.717550   0.000000   0.000000
                                    CHANNELS 3 Zrotation Xrotation Yrotation
                                    JOINT RightFinger42
                                    {
                                        OFFSET  -1.858770   0.000000   0.000000
                                        CHANNELS 3 Zrotation Xrotation Yrotation
                                        End Site
                                        {
                                            OFFSET  -1.818440   0.000000   0.000000
                                        }
                                    }
                                }
                            }
                        }
                    }
                }
            }
        }
    }
    JOINT LeftHip
    {
        OFFSET   9.783040   0.000000   0.000000
        CHANNELS 3 Zrotation Xrotation Yrotation
        JOINT LeftKnee
        {
            OFFSET   0.000032 -41.789100  -0.002222
            CHANNELS 3 Zrotation Xrotation Yrotation
            JOINT LeftAnkle
            {
                OFFSET   0.000087 -41.133200  -0.000135
                CHANNELS 3 Zrotation Xrotation Yrotation
                JOINT LeftToe
                {
                    OFFSET   0.000000  -6.358960  14.674500
                    CHANNELS 3 Zrotation Xrotation Yrotation
                    End Site
                    {
                        OFFSET   0.000000   0.000000   3.913200
                    }
                }
            }
        }
    }
    JOINT RightHip
    {
        OFFSET  -9.783040   0.000000   0.000000
        CHANNELS 3 Zrotation Xrotation Yrotation
        JOINT RightKnee
        {
            OFFSET   0.000047 -41.789100  -0.000896
            CHANNELS 3 Zrotation Xrotation Yrotation
            JOINT RightAnkle
            {
                OFFSET  -0.000117 -41.133300  -0.000248
                CHANNELS 3 Zrotation Xrotation Yrotation
                JOINT RightToe
                {
                    OFFSET   0.000000  -6.358970  14.674500
                    CHANNELS 3 Zrotation Xrotation Yrotation
                    End Site
                    {
                        OFFSET   0.000000   0.000000   3.913200
                    }
                }
            }
        }
    }
}
MOTION
Frames: 5
Frame Time:   0.016667
  0.470602  89.529700  -0.051600  -2.121530  -4.453960  -1.384980   1.203280   3.170920  -0.260702   2.426600   6.335620  -0.589506   0.649389  -0.376872   0.004074   1.066960  -0.764099   7.646940  -6.692210   3.408360  -1.355760 -63.262400  20.280500  -8.065480  -3.558730  -7.304310 -10.191800   2.814420  -7.876820   8.538320  36.807100  26.285800 -68.776300 -11.233400  -0.005887   0.011741  -0.616699  -0.002938   0.002331 -32.140900   5.874750  -9.252740 -26.686400  -0.001556  -0.002234 -18.680500   0.005007  -0.001817 -28.420600   2.312620  -4.239700 -36.227700  -0.001853  -0.000804 -24.127700   0.010470  -0.000920 -28.594000  -0.398758   0.731171 -37.511300   0.008041   0.000703 -24.982600   0.001901   0.000360 -34.516900  -0.471940   0.686200 -51.779700  -0.001806   0.000492 -34.485300   0.002236  -0.001820   7.903190   0.530046   9.788710  67.149800  15.328900   0.349831   0.655684  -1.152820   7.024390 -12.583100 -23.252200   1.721430 -49.252000  44.381100  88.981300  10.233600   0.001693  -0.000196   0.116827   0.002178   0.000571  31.280200   7.266840  11.761000  26.206100   0.001285  -0.007733  18.335400   0.002997  -0.005683  28.095400   4.331190   8.051170  35.142000   0.004946  -0.003356  23.404600   0.000576  -0.007799  28.330700   3.496590   6.454380  36.460500  -0.000725   0.006282  24.282700   0.000380   0.001283  35.570800   0.105678   0.145442  53.356400   0.007506  -0.000441  35.535400  -0.000230   0.002597   2.688190   7.051980   1.342430   1.246710   0.431630   3.732960  -3.088350  -2.700090  13.883400   0.000000   0.000000  -0.000000   1.281600   1.738130  -6.493230   1.505000   5.895320  -0.660395  -5.129090  -3.022630  -1.730560  -0.000000   0.000000  -0.000000
  0.470546  89.530000  -0.056022  -2.122060  -4.458820  -1.392520   1.207670   3.180820  -0.259939   2.435450   6.355390  -0.588440   0.645832  -0.386955   0.004072   1.061090  -0.784570   7.625740  -6.747860   3.346080  -1.412250 -63.255900  20.232900  -8.031590  -3.537610  -7.320750 -10.180300   2.806500  -7.843590   8.530730  36.913000  26.357400 -68.761600 -11.204700  -0.006120   0.011810  -0.602375  -0.003052   0.002346 -32.099200   5.873980  -9.263370 -26.652900  -0.001559  -0.002251 -18.657000   0.005000  -0.001833 -28.414800   2.312580  -4.253080 -36.163800  -0.001872  -0.000820 -24.085100   0.010464  -0.000930 -28.593700  -0.389158   0.713561 -37.458200   0.008039   0.000707 -24.947300   0.001892   0.000362 -34.485400  -0.460250   0.669944 -51.732300  -0.001821   0.000478 -34.453700   0.002213  -0.001795   7.916920   0.450118   9.796590  67.094500  15.328300   0.381991   0.660276  -1.158040   6.961890 -12.573400 -23.181100   1.699460 -49.318700  44.531400  89.226800  10.173700   0.001557  -0.000206   0.086872   0.002044   0.000673  31.281700   7.275420  11.773600  26.208400   0.001285  -0.007749  18.341400   0.003009  -0.005697  28.095000   4.345560   8.078390  35.148600   0.004953  -0.003309  23.409000   0.000570  -0.007804  28.329100   3.504500   6.469560  36.440700  -0.000724   0.006293  24.269500   0.000376   0.001249  35.549200   0.105860   0.152787  53.324200   0.007503  -0.000463  35.513900  -0.000243   0.002583   2.687830   7.052420   1.342420   1.246520   0.446741   3.732900  -3.093680  -2.707970  13.897700  -0.000000   0.000000  -0.000000   1.281620   1.742690  -6.490620   1.507570   5.896000  -0.661625  -5.129820  -3.023590  -1.724570   0.000000   0.000000  -0.000000
  0.470452  89.530900  -0.063904  -2.123290  -4.471670  -1.406580   1.216350   3.202160  -0.257558   2.452880   6.398060  -0.584628   0.639086  -0.408586   0.004070   1.050000  -0.828419   7.587170  -6.845180   3.241490  -1.502840 -63.256600  20.137200  -7.995230  -3.496970  -7.356650 -10.159400   2.784580  -7.793710   8.522800  37.019000  26.429000 -68.747000 -11.176100  -0.006507   0.011951  -0.588050  -0.003243   0.002387 -32.058100   5.869600  -9.273930 -26.619300  -0.001569  -0.002292 -18.633500   0.004986  -0.001867 -28.409000   2.312540  -4.266450 -36.099800  -0.001913  -0.000856 -24.042500   0.010450  -0.000951 -28.593400  -0.379557   0.695951 -37.405200   0.008036   0.000719 -24.911900   0.001868   0.000365 -34.453800  -0.448560   0.653687 -51.684900  -0.001852   0.000446 -34.422100   0.002155  -0.001732   7.941840   0.305460   9.804430  66.985500  15.324100   0.458129   0.674828  -1.163410   6.840090 -12.524800 -22.974200   1.675820 -49.440300  44.806300  89.680200  10.045700   0.001420  -0.000216   0.022862   0.001857   0.000843  31.281500   7.287760  11.793200  26.210600   0.001287  -0.007789  18.347500   0.003028  -0.005728  28.095700   4.363280   8.110680  35.164400   0.004969  -0.003214  23.419500   0.000550  -0.007817  28.327500   3.512410   6.484750  36.420600  -0.000722   0.006321  24.256100   0.000367   0.001164  35.527700   0.106043   0.160132  53.291900   0.007496  -0.000520  35.492400  -0.000276   0.002546   2.687410   7.055530   1.342390   1.246320   0.461853   3.732420  -3.102030  -2.715720  13.922600  -0.000000   0.000000   0.000000   1.281880   1.750070  -6.485300   1.512860   5.900820  -0.664770  -5.131660  -3.027070  -1.713710   0.000000   0.000000   0.000000
  0.470356  89.532700  -0.071463  -2.124890  -4.489360  -1.420930   1.226020   3.227170  -0.252598   2.472070   6.448140  -0.574871   0.632203  -0.434185   0.004077   1.038750  -0.880181   7.545880  -6.935500   3.155290  -1.582760 -63.269500  20.021600  -8.009450  -3.454450  -7.404410 -10.133000   2.756330  -7.760430   8.523330  36.859100  26.303400 -68.729800 -11.238200  -0.006891   0.012140  -0.619114  -0.003439   0.002467 -32.076200   5.859560  -9.254620 -26.633100  -0.001590  -0.002354 -18.643200   0.004969  -0.001911 -28.414800   2.285760  -4.216220 -36.150800  -0.001970  -0.000911 -24.076400   0.010429  -0.000977 -28.598300  -0.405081   0.742627 -37.443500   0.008030   0.000738 -24.937400   0.001832   0.000368 -34.495000  -0.479284   0.697038 -51.746900  -0.001895   0.000401 -34.463400   0.002068  -0.001639   7.964830   0.162789   9.801920  66.869700  15.276900   0.548874   0.700879  -1.163000   6.710240 -12.423700 -22.604400   1.693810 -49.567600  45.084600  90.135900   9.903050   0.001451  -0.000189  -0.048462   0.001776   0.001014  31.276400   7.294250  11.808200  26.208600   0.001290  -0.007847  18.346000   0.003043  -0.005772  28.098700   4.367200   8.116590  35.194500   0.004992  -0.003088  23.439500   0.000510  -0.007840  28.327200   3.511180   6.482490  36.420400  -0.000723   0.006362  24.256000   0.000352   0.001035  35.542400   0.105997   0.155135  53.313900   0.007488  -0.000607  35.507000  -0.000329   0.002489   2.687120   7.079280   1.340280   1.246050   0.442692   3.730770  -3.107740  -2.707550  13.945000  -0.000000   0.000000  -0.000000   1.282430   1.752850  -6.478480   1.521080   5.918480  -0.669803  -5.135300  -3.033540  -1.703630  -0.000000   0.000000   0.000000
  0.470297  89.534900  -0.079274  -2.127190  -4.517930  -1.437190   1.237500   3.262490  -0.247753   2.495200   6.518800  -0.567540   0.623877  -0.469248   0.004084   1.025120  -0.951135   7.507970  -7.024790   3.069800  -1.628520 -63.281600  19.894600  -8.075590  -3.402600  -7.460030 -10.116600   2.692710  -7.743660   8.531460  36.660400  26.143100 -68.747300 -11.334800  -0.007121   0.012325  -0.667394  -0.003558   0.002550 -32.096800   5.843580  -9.220260 -26.647000  -0.001614  -0.002424 -18.652900   0.004950  -0.001962 -28.423800   2.236490  -4.124300 -36.201700  -0.002030  -0.000973 -24.110400   0.010401  -0.001009 -28.602500  -0.451974   0.828498 -37.481800   0.008022   0.000760 -24.962900   0.001787   0.000371 -34.535500  -0.535357   0.777138 -51.809000  -0.001941   0.000352 -34.504700   0.001961  -0.001524   7.980750   0.012147   9.795570  66.721900  15.233000   0.701405   0.736051  -1.158340   6.550050 -12.268300 -22.164900   1.719000 -49.688000  45.379400  90.640500   9.688750   0.001670  -0.000162  -0.155620   0.001749   0.001117  31.262500   7.296980  11.816300  26.197000   0.001295  -0.007919  18.337900   0.003061  -0.005825  28.100600   4.367760   8.117430  35.215400   0.005021  -0.002974  23.453400   0.000457  -0.007868  28.325700   3.502620   6.466680  36.420300  -0.000726   0.006411  24.255900   0.000336   0.000874  35.563900   0.105677   0.147831  53.346000   0.007476  -0.000715  35.528400  -0.000394   0.002417   2.686970   7.122330   1.333890   1.244650   0.423530   3.729530  -3.112490  -2.699380  13.967900  -0.000000   0.000000  -0.000000   1.283570   1.760820  -6.471620   1.526990   5.942980  -0.675735  -5.138030  -3.042790  -1.691630   0.000000   0.000000   0.000000
